<svg xmlns="http://www.w3.org/2000/svg" viewBox="0 0 192 192">
  <defs>
    <linearGradient id="bg" x1="0%" y1="0%" x2="100%" y2="100%">
      <stop offset="0%" stop-color="#130720"/>
      <stop offset="100%" stop-color="#2d1260"/>
    </linearGradient>
    <filter id="glow" x="-35%" y="-35%" width="170%" height="170%">
      <feGaussianBlur in="SourceAlpha" stdDeviation="5" result="blur"/>
      <feColorMatrix in="blur" type="matrix"
        values="0 0 0 0 0.56
                0 0 0 0 0.23
                0 0 0 0 1
                0 0 0 0.85 0" result="coloredBlur"/>
      <feMerge>
        <feMergeNode in="coloredBlur"/>
        <feMergeNode in="SourceGraphic"/>
      </feMerge>
    </filter>
  </defs>

  <!-- Background -->
  <rect width="192" height="192" rx="38" fill="url(#bg)"/>

  <!-- Lightning bolt: original 48×46, scaled to ~130×124, centred -->
  <g transform="translate(31,34) scale(2.71)" filter="url(#glow)">
    <path fill="#9f5cff"
      d="M25.946 44.938c-.664.845-2.021.375-2.021-.698V33.937a2.26 2.26 0 0 0-2.262-2.262H10.287c-.92 0-1.456-1.04-.92-1.788l7.48-10.471c1.07-1.497 0-3.578-1.842-3.578H1.237c-.92 0-1.456-1.04-.92-1.788L10.013.474c.214-.297.556-.474.92-.474h28.894c.92 0 1.456 1.04.92 1.788l-7.48 10.471c-1.07 1.498 0 3.579 1.842 3.579h11.377c.943 0 1.473 1.088.89 1.83L25.947 44.94z"/>
  </g>
</svg>
